<?xml version="1.0" standalone="no"?>
<!DOCTYPE svg PUBLIC "-//W3C//DTD SVG 20010904//EN"
 "http://www.w3.org/TR/2001/REC-SVG-20010904/DTD/svg10.dtd">
<svg version="1.0" xmlns="http://www.w3.org/2000/svg"
 width="700.000000pt" height="700.000000pt" viewBox="0 0 700.000000 700.000000"
 preserveAspectRatio="xMidYMid meet">
<metadata>
Created by potrace 1.11, written by Peter Selinger 2001-2013
</metadata>
<g transform="translate(0.000000,700.000000) scale(0.100000,-0.100000)"
fill="#000000" stroke="none">
<path d="M3278 6996 c-1 -2 -39 -6 -83 -10 -185 -14 -419 -56 -621 -111 -107
-29 -333 -106 -403 -138 -25 -11 -50 -21 -56 -22 -5 -2 -48 -21 -95 -44 -47
-22 -91 -41 -97 -41 -7 0 -13 -4 -13 -9 0 -5 -9 -13 -21 -16 -11 -4 -59 -29
-106 -56 -46 -27 -87 -49 -89 -49 -3 0 -10 -4 -17 -10 -7 -5 -61 -42 -122 -82
-60 -40 -117 -78 -125 -85 -8 -6 -53 -42 -100 -78 -144 -113 -343 -300 -445
-419 -22 -26 -47 -55 -56 -64 -78 -82 -300 -399 -354 -504 -11 -21 -24 -38
-29 -38 -5 0 -7 -3 -3 -6 3 -3 -7 -27 -22 -52 -62 -107 -194 -403 -225 -507
-2 -5 -6 -17 -10 -25 -16 -37 -98 -335 -109 -400 -15 -82 -28 -148 -32 -170
-8 -41 -17 -107 -32 -250 -15 -150 -8 -602 12 -721 2 -13 6 -46 9 -74 3 -27 8
-61 11 -75 3 -14 7 -40 10 -59 2 -18 7 -41 9 -50 3 -9 7 -27 10 -41 9 -56 58
-247 71 -283 8 -20 13 -37 10 -37 -3 0 1 -13 10 -30 8 -16 15 -32 15 -35 0 -3
0 -6 1 -7 0 -2 2 -12 4 -23 2 -10 8 -28 13 -40 6 -11 15 -36 22 -55 7 -19 16
-44 21 -55 4 -11 19 -48 33 -82 32 -78 127 -273 164 -338 16 -27 39 -68 52
-90 12 -22 31 -52 41 -67 11 -14 19 -31 19 -36 0 -6 3 -12 8 -14 10 -5 52 -66
52 -77 0 -5 3 -11 8 -13 4 -2 28 -32 54 -68 40 -57 66 -91 136 -176 94 -115
257 -283 365 -377 33 -29 67 -59 76 -68 9 -8 34 -29 56 -45 22 -16 42 -31 45
-35 13 -14 172 -129 179 -129 4 0 16 -9 26 -20 10 -11 24 -20 32 -20 7 0 13
-4 13 -10 0 -5 4 -10 10 -10 5 0 33 -15 62 -34 170 -108 462 -246 678 -321 3
-1 12 -4 20 -8 34 -13 187 -58 245 -73 53 -13 154 -37 170 -40 11 -2 43 -8 70
-14 62 -12 95 -17 154 -26 25 -3 57 -8 71 -10 163 -25 682 -25 842 1 13 2 46
7 73 10 86 12 80 11 205 35 77 14 303 75 375 100 33 12 67 23 76 25 82 17 553
235 616 285 14 11 32 20 39 20 8 0 14 5 14 10 0 6 4 10 9 10 16 0 212 134 321
219 163 127 328 281 467 438 85 95 223 270 223 283 0 5 3 10 8 10 4 0 20 21
37 48 16 26 33 52 37 57 18 22 58 86 58 92 0 4 6 14 14 22 17 21 86 147 153
283 151 304 276 714 317 1033 3 22 8 60 12 85 13 95 15 132 18 365 2 132 0
276 -4 320 -12 125 -21 202 -25 223 -5 29 -16 93 -20 123 -6 39 -55 261 -64
289 -5 14 -17 52 -26 85 -63 224 -193 527 -318 745 -98 171 -299 456 -364 517
-12 12 -23 24 -23 27 0 24 -283 300 -435 425 -27 23 -60 50 -72 61 -12 11 -24
20 -27 20 -5 0 -126 87 -153 110 -7 5 -15 10 -19 10 -3 0 -23 12 -43 28 -40
30 -44 33 -189 114 -57 32 -108 58 -113 58 -5 0 -9 5 -9 10 0 6 -7 10 -14 10
-8 0 -46 15 -83 34 -102 50 -264 117 -368 150 -27 9 -79 26 -115 37 -36 12
-72 22 -80 24 -8 2 -42 10 -75 19 -70 18 -195 45 -245 52 -45 7 -79 13 -110
19 -13 2 -52 7 -86 11 -33 3 -74 8 -90 10 -32 5 -540 14 -546 10z"/>
</g>
</svg>
